# xmcd
#
# Track frame offsets:
#	182
#	32702
#	65185
#
# Disc length: 1267 seconds
#
# Revision: 1
# Processed by: cddbd v1.5.1PL0 Copyright (c) Steve Scherf et al.
# Submitted via: audiograbber 1.83.01
#
DISCID=2604f103
DTITLE=Infrequent Oscilation Traxx - Number 1
DYEAR=1994
DGENRE=
TTITLE0=Hihat Escalation
TTITLE1=Burning Phibes
TTITLE2=Ghost In The Bassline
EXTD=
EXTT0=
EXTT1=
EXTT2=
PLAYORDER=
